<svg width="70" height="20" viewBox="0 0 70 20" fill="none" xmlns="http://www.w3.org/2000/svg">
<g clip-path="url(#clip0_171_578)">
<path d="M0.394775 8.15094H4.71862V3.69811H14.8984V0H0.394775V8.15094Z" fill="#454545"/>
<path d="M0.394775 20H14.8984V16.3019H4.71862V11.8491H0.394775V20Z" fill="#454545"/>
<path d="M4.71851 8.15094H14.0282V11.8491H4.71851V8.15094Z" fill="#454545"/>
<path d="M32.9278 1.83774C32.3127 1.24877 31.5808 0.794979 30.7791 0.505667C29.747 0.143296 28.6573 -0.0280672 27.5636 6.61262e-06H18.6057V20H22.9296V11.8491H27.5636C28.6523 11.8753 29.7367 11.704 30.7639 11.3434C31.571 11.056 32.3083 10.6021 32.9278 10.0113C33.4659 9.47996 33.8782 8.83532 34.1345 8.12454C34.6388 6.70619 34.6388 5.15797 34.1345 3.73963C33.8792 3.02396 33.4669 2.37418 32.9278 1.83774ZM29.9014 7.06793C29.6797 7.36383 29.3852 7.59776 29.0465 7.74718C28.6526 7.91517 28.2356 8.02329 27.8095 8.06793C27.3249 8.12494 26.8373 8.15266 26.3493 8.15095H22.9296V3.69812H26.3531C26.841 3.69641 27.3287 3.72413 27.8133 3.78114C28.2399 3.82507 28.6572 3.93454 29.0503 4.10567C29.3882 4.25294 29.6816 4.4858 29.9014 4.78114C30.1282 5.11421 30.2422 5.5109 30.2268 5.91321C30.2471 6.32317 30.1329 6.72857 29.9014 7.06793Z" fill="#454545"/>
<path d="M59.2074 16.3019V0H54.8835V20H69.3872V16.3019H59.2074Z" fill="#454545"/>
<path d="M37.2478 8.15094H41.5717V3.69811H51.7514V0H37.2478V8.15094Z" fill="#454545"/>
<path d="M37.2478 11.8491H41.5717V20H37.2478V11.8491Z" fill="#454545"/>
<path d="M41.5715 8.15094H50.8812V11.8491H41.5715V8.15094Z" fill="#454545"/>
</g>
<defs>
<clipPath id="clip0_171_578">
<rect width="69" height="20" fill="white" transform="translate(0.394775)"/>
</clipPath>
</defs>
</svg>
